<?xml version="1.0" encoding="utf-8"?>
<!-- Generator: Adobe Illustrator 26.1.0, SVG Export Plug-In . SVG Version: 6.00 Build 0)  -->
<svg version="1.1" id="Layer_1" xmlns="http://www.w3.org/2000/svg" xmlns:xlink="http://www.w3.org/1999/xlink" x="0px" y="0px"
	 viewBox="0 0 100 100" enable-background="new 0 0 100 100" xml:space="preserve">
<path fill="#DE4C24" d="M33.7,96.1c2.1-0.9,4.2-1.8,6.2-2.8C56.2,85.6,68.6,73.9,75.4,57c2.9-7.3,2.4-14.8-0.7-22
	c-0.4-0.8-1-1.6-2-3c-3.2,10.1-8.9,16.9-18.4,19.8c-0.3-0.2-0.6-0.5-0.9-0.7c0.8-1.3,1.5-2.7,2.4-4c3.7-5,7.8-9.7,9-16.1
	c0.3-1.4,0.5-2.9,0.4-4.3c-0.4-7.2-3.9-9.8-10.9-8.4c-9.9,2.1-18.1,11.4-19.5,22.7c-0.5,3.9-0.7,8,0.1,11.8c0.7,3.5,2.5,7,4.6,10
	c2.2,3.1,5.5,5.5,8,8.4c3.5,4,3.1,6.9-1.1,10.1c-6.2,4.6-13.1,7.4-20.8,8.1c-3.9,0.3-7.2-1.2-10-3.7C7.9,79.1,3.5,70.4,1.9,60.6
	c-1.7-10.4-1-20.7,3-30.7C11.2,14.2,23.5,5.9,39.2,2c33.4-8.3,63.6,20.9,59.4,55.1c-1.9,15.3-9.1,27.2-22.2,35.2
	C63,100.5,48.7,101.4,33.7,96.1z"/>
</svg>
