<?xml version="1.0" encoding="utf-8"?>
<!-- Generator: Adobe Illustrator 26.1.0, SVG Export Plug-In . SVG Version: 6.00 Build 0)  -->
<svg version="1.1" id="Layer_1" xmlns="http://www.w3.org/2000/svg" xmlns:xlink="http://www.w3.org/1999/xlink" x="0px" y="0px"
	 viewBox="0 0 100 21" enable-background="new 0 0 100 21" xml:space="preserve">
<path fill="#DE4C24" d="M21.1,19.7c0.3-0.1,0.6-0.3,1-0.4c2.5-1.2,4.4-3,5.5-5.6c0.5-1.1,0.4-2.3-0.1-3.4c-0.1-0.1-0.2-0.2-0.3-0.5
	c-0.5,1.6-1.4,2.6-2.8,3.1c0,0-0.1-0.1-0.1-0.1c0.1-0.2,0.2-0.4,0.4-0.6c0.6-0.8,1.2-1.5,1.4-2.5c0-0.2,0.1-0.4,0.1-0.7
	c-0.1-1.1-0.6-1.5-1.7-1.3c-1.5,0.3-2.8,1.8-3,3.5c-0.1,0.6-0.1,1.2,0,1.8c0.1,0.5,0.4,1.1,0.7,1.5c0.3,0.5,0.8,0.8,1.2,1.3
	c0.5,0.6,0.5,1.1-0.2,1.6c-1,0.7-2,1.1-3.2,1.2c-0.6,0.1-1.1-0.2-1.5-0.6c-1.2-1-1.9-2.4-2.1-3.9c-0.3-1.6-0.2-3.2,0.5-4.7
	c1-2.4,2.9-3.7,5.3-4.3c5.2-1.3,9.8,3.2,9.2,8.5c-0.3,2.4-1.4,4.2-3.4,5.4C25.6,20.4,23.4,20.5,21.1,19.7z"/>
<path d="M4.5,14.2c0,1.3,0.9,1.9,2.2,1.9c1.4,0,2.2-1,2.2-2.4c-0.1-3-2.7-2.9-5-2.7v-0.6l2.9-5.8h-6V0.5h12.5v0.7L9.7,7.9
	c3.1,0.8,4,3.3,4,5.9c0,3.3-2.4,6.8-7,6.8c-3.8,0-6.7-2.4-6.8-6.4H4.5z"/>
<path d="M50.6,0.4h1.8v19.8h-5.1v-9.1l-4.2,4.4h-0.6l-4.2-4.4v9.1h-5.1V0.4H35L42.8,9L50.6,0.4z"/>
<path d="M69.1,7.6v8.3c0,1.1-0.1,1.6,1.2,1.6V20c-1.7,0.4-5,0.9-5-1.7v-0.2c-0.8,1.5-2.3,2.3-3.9,2.3c-4.2-0.1-6.1-3.3-6.1-7.2
	c0.1-4.7,3.3-7,8-6.9C65.2,6.3,67.2,6.8,69.1,7.6z M64.5,10.3c-0.6-0.1-1.2-0.2-1.7-0.2c-1.7,0-2.7,1-2.8,3.2c0,1.8,0.8,2.9,2.4,2.9
	c1.4,0,2.1-1.2,2.1-2.9V10.3z"/>
<path d="M81.4,6.2c1,0,2,0.3,2.8,0.8l-1,3.9c-0.8-0.5-1.6-0.7-2.3-0.7c-1.6,0.1-3,1.1-3,3.2v6.8h-4.7v-9.5c0-1-0.1-1.5-1.2-1.5V6.6
	c1.9-0.5,5.5-0.8,5.8,1.9C78.3,6.9,79.9,6.2,81.4,6.2z"/>
<path d="M98.8,7.6v8.3c0,1.1-0.1,1.6,1.2,1.6V20c-1.7,0.4-5,0.9-5-1.7v-0.2c-0.8,1.5-2.3,2.3-3.9,2.3c-4.2-0.1-6.1-3.3-6.1-7.2
	c0.1-4.7,3.3-7,8-6.9C94.9,6.3,97,6.8,98.8,7.6z M94.2,10.3c-0.6-0.1-1.2-0.2-1.7-0.2c-1.7,0-2.7,1-2.8,3.2c0,1.8,0.8,2.9,2.4,2.9
	c1.4,0,2.1-1.2,2.1-2.9V10.3z"/>
</svg>
