<?xml version="1.0" encoding="utf-8"?>
<!-- Generator: Adobe Illustrator 26.1.0, SVG Export Plug-In . SVG Version: 6.00 Build 0)  -->
<svg version="1.1" id="Layer_1" xmlns="http://www.w3.org/2000/svg" xmlns:xlink="http://www.w3.org/1999/xlink" x="0px" y="0px"
	 viewBox="0 0 100 68.6" enable-background="new 0 0 100 68.6" xml:space="preserve">
<path fill="#DE4C24" d="M21.1,67.9c0.3-0.1,0.6-0.3,1-0.4c2.5-1.2,4.4-3,5.5-5.6c0.5-1.1,0.4-2.3-0.1-3.4c-0.1-0.1-0.2-0.2-0.3-0.5
	c-0.5,1.6-1.4,2.6-2.8,3.1c0,0-0.1-0.1-0.1-0.1c0.1-0.2,0.2-0.4,0.4-0.6c0.6-0.8,1.2-1.5,1.4-2.5c0-0.2,0.1-0.4,0.1-0.7
	c-0.1-1.1-0.6-1.5-1.7-1.3c-1.5,0.3-2.8,1.8-3,3.5c-0.1,0.6-0.1,1.2,0,1.8c0.1,0.5,0.4,1.1,0.7,1.5c0.3,0.5,0.8,0.8,1.2,1.3
	c0.5,0.6,0.5,1.1-0.2,1.6c-1,0.7-2,1.1-3.2,1.2c-0.6,0.1-1.1-0.2-1.5-0.6c-1.2-1-1.9-2.4-2.1-3.9c-0.3-1.6-0.2-3.2,0.5-4.7
	c1-2.4,2.9-3.7,5.3-4.3c5.2-1.3,9.8,3.2,9.2,8.5c-0.3,2.4-1.4,4.2-3.4,5.4C25.6,68.6,23.4,68.7,21.1,67.9z"/>
<path fill="#FFFFFF" d="M4.5,62.4c0,1.3,0.9,1.9,2.2,1.9c1.4,0,2.2-1,2.2-2.4c-0.1-3-2.7-2.9-5-2.7v-0.6l2.9-5.8h-6v-4.2h12.5v0.7
	l-3.6,6.6c3.1,0.8,4,3.3,4,5.9c0,3.3-2.4,6.8-7,6.8c-3.8,0-6.7-2.4-6.8-6.4H4.5z"/>
<path fill="#FFFFFF" d="M50.6,48.6h1.8v19.8h-5.1v-9.1l-4.2,4.4h-0.6l-4.2-4.4v9.1h-5.1V48.6H35l7.8,8.5L50.6,48.6z"/>
<path fill="#FFFFFF" d="M69.1,55.7V64c0,1.1-0.1,1.6,1.2,1.6v2.6c-1.7,0.4-5,0.9-5-1.7v-0.2c-0.8,1.5-2.3,2.3-3.9,2.3
	c-4.2-0.1-6.1-3.3-6.1-7.2c0.1-4.7,3.3-7,8-6.9C65.2,54.5,67.2,55,69.1,55.7z M64.5,58.5c-0.6-0.1-1.2-0.2-1.7-0.2
	c-1.7,0-2.7,1-2.8,3.2c0,1.8,0.8,2.9,2.4,2.9c1.4,0,2.1-1.2,2.1-2.9V58.5z"/>
<path fill="#FFFFFF" d="M81.4,54.4c1,0,2,0.3,2.8,0.8l-1,3.9c-0.8-0.5-1.6-0.7-2.3-0.7c-1.6,0.1-3,1.1-3,3.2v6.8h-4.7v-9.5
	c0-1-0.1-1.5-1.2-1.5v-2.6c1.9-0.5,5.5-0.8,5.8,1.9C78.3,55.1,79.9,54.4,81.4,54.4z"/>
<path fill="#FFFFFF" d="M98.8,55.7V64c0,1.1-0.1,1.6,1.2,1.6v2.6c-1.7,0.4-5,0.9-5-1.7v-0.2c-0.8,1.5-2.3,2.3-3.9,2.3
	c-4.2-0.1-6.1-3.3-6.1-7.2c0.1-4.7,3.3-7,8-6.9C94.9,54.5,97,55,98.8,55.7z M94.2,58.5c-0.6-0.1-1.2-0.2-1.7-0.2
	c-1.7,0-2.7,1-2.8,3.2c0,1.8,0.8,2.9,2.4,2.9c1.4,0,2.1-1.2,2.1-2.9V58.5z"/>
<g>
	<path fill="#DE4C24" d="M49.9,11.9c0.2-0.4,0.4-0.7,0.6-1c0.7-1.1,1.5-2.1,2.7-2.7C54,7.8,54.9,7.7,55.8,8c1.1,0.4,1.3,1.3,1.3,2.2
		c0,1.1-0.5,2.1-1.2,2.8c-0.1,0.1-0.2,0.1-0.2,0.2c-0.1,0-0.2,0.1-0.4,0.2c0.1-0.2,0.2-0.4,0.2-0.5c0.3-0.7,0.6-1.4,0.8-2.1
		c0.3-1.3-0.7-2.2-2-1.8c-1.2,0.4-2,1.3-2.6,2.4c-0.1,0.2,0,0.6,0.1,0.7c0.7,0.6,0.8,0.7,0.2,1.4c0.6,0.7,1.2,1.5,1.8,2.2
		c1.3,1.6,2.2,3.4,2.5,5.5c0.3,2.7-0.1,5.3-1.5,7.7c-0.2,0.4-0.4,0.7-0.6,1.1c-1.2-0.8-2.6-1.2-4.1-1.1c-1.5,0-2.9,0.2-4.2,1.1
		c-1.9-2.6-2.7-5.4-2.3-8.7c0.4-3.2,2.3-5.6,4.5-7.9c-0.1-0.1-0.2-0.2-0.2-0.3c-0.4-0.4-0.3-0.9,0.2-1.1c0.4-0.1,0.4-0.4,0.3-0.6
		c-0.3-0.6-0.7-1.2-1.2-1.7c-0.4-0.4-0.9-0.6-1.3-0.8c-1.1-0.5-2,0-2.2,1.2c-0.2,1.1,0.1,2,1.1,3.2c-0.3-0.1-0.5-0.1-0.6-0.3
		c-1-0.9-1.7-2.5-1.2-3.8c0.3-0.9,0.9-1.3,1.8-1.4c1-0.1,1.9,0.3,2.7,0.9c0.9,0.7,1.7,1.5,2.2,2.7C49.6,11.5,49.8,11.7,49.9,11.9z"
		/>
	<path fill="#DE4C24" d="M64.1,8.3c0.3-2.9-0.8-6.1-4.5-7.3c0.6-0.2,1.3-0.5,1.9-0.7c3.1-0.7,5.8,0.2,7.9,2.6
		c1.9,2.1,2.8,4.7,2.6,7.5c-0.2,2.1-1,3.8-3.1,4.7c-1.1,0.5-2.3,0.4-3.4,0.1c-3.8-1.1-7.1-4.9-7.4-8.9c-0.1-1,0-2,0-3
		c0-0.1,0-0.2,0.1-0.3c0.2-0.6,0.5-0.7,0.9-0.2C59.7,3.6,60.3,4.3,61,5C62,6.1,63,7.2,64.1,8.3z"/>
	<path fill="#DE4C24" d="M35.9,8.3c1.5-1.7,3.1-3.3,4.6-5c0.3-0.3,0.5-0.9,0.9-0.6c0.3,0.1,0.5,0.7,0.5,1.1c0.2,1.7,0,3.3-0.6,4.8
		c-0.9,2.5-2.4,4.6-4.8,5.9c-1.6,0.9-3.2,1.3-5,0.9c-0.6-0.2-1.3-0.5-1.8-1C28.6,13.1,28,11.7,28,10c-0.1-2.6,0.6-4.9,2.3-6.9
		c2.4-3,6.1-4,9.9-2.2c0.1,0,0.1,0.1,0.2,0.1C36.5,2.3,35.7,5.6,35.9,8.3z"/>
	<path fill="#DE4C24" d="M51.9,41c0,0.2,0,0.3,0.1,0.5c0.1,0.5,0.2,1,0.3,1.6c0.1,1-0.5,1.6-1.3,2c-1,0.6-1.8,0.2-2.6-0.3
		c-0.7-0.5-0.9-1.3-0.8-2.1c0.1-0.4,0.2-0.8,0.2-1.2c0-0.2,0-0.3,0-0.5c0,0-0.1,0-0.1,0c-0.1,0.1-0.1,0.2-0.2,0.3
		c-0.3,0.5-0.5,0.9-0.8,1.3c-0.6,0.8-1.8,1-2.6,0.3c-0.9-0.7-1-1.8-0.3-2.6c0.4-0.5,1-0.9,1.5-1.3c0.4-0.4,0.9-0.7,1.3-1.1
		c0.3-0.2,0.5-0.3,0.9-0.1c1.6,0.8,3.3,0.8,4.9,0c0.2-0.1,0.5-0.1,0.6,0c1,0.8,2,1.6,2.9,2.5c0.7,0.7,0.7,1.5,0.2,2.2
		c-0.9,1.2-2.2,1.2-3.1,0c-0.4-0.5-0.7-1-1-1.6C52,40.9,52,41,51.9,41z"/>
	<path fill="#DE4C24" d="M80.3,24.9c-0.8-0.2-1.1-1.3-0.8-2c0.2-0.6,1-0.8,1.8-0.5c0.6,0.3,1.1,0.7,1.5,1.3c0.1,0.1,0.2,0.3,0.4,0.5
		c0.3-0.4,0.5-0.8,0.7-1c0.3-0.4,0.7-0.8,1.2-1c0.9-0.4,1.7,0.2,1.7,1.2c0,0.6-0.3,1.1-0.9,1.6c0.1-0.5,0.2-0.8,0.2-1.1
		c0-0.4-0.1-0.7-0.2-1.1c-0.3,0.1-0.7,0.1-1,0.3c-0.3,0.3-0.6,0.7-0.8,1c0,0.1-0.1,0.2-0.1,0.2c0.4,0.3,0.2,1,0.5,1.3
		c1,1,1.6,2.2,1.9,3.5c0.3,1.6,0.1,3.2-0.6,4.6c-0.2,0.4-0.4,0.5-0.9,0.4c-1.2-0.3-2.5-0.5-3.7,0.1c-0.1,0-0.4-0.1-0.5-0.2
		c-0.3-0.8-0.7-1.5-0.9-2.3c-0.5-2.1,0.1-3.9,1.5-5.6c0.2-0.2,0.3-0.4,0.5-0.5c0.1-0.1,0.2-0.2,0.1-0.3c-0.2-0.4-0.1-0.6,0.2-0.7
		c0.1,0,0.1-0.4,0-0.5c-0.3-0.5-0.7-0.9-1.2-1c-0.6-0.2-1,0.2-1,0.8C80,24.2,80.2,24.5,80.3,24.9z"/>
	<path fill="#DE4C24" d="M14.2,24.8c-0.8-0.3-1.2-1.6-0.8-2.3c0.3-0.4,0.8-0.6,1.4-0.4c0.8,0.3,1.3,0.8,1.6,1.5
		c0.1,0.2,0.1,0.3,0.3,0.6c0.2-0.2,0.3-0.3,0.4-0.5c0.4-0.6,0.9-1.2,1.7-1.5c0.7-0.3,1.5-0.1,1.6,0.3c0.3,0.7,0.2,1.7-0.4,2.1
		c-0.1,0.1-0.2,0.1-0.4,0.3c0.1-0.5,0.1-1,0.2-1.5c0-0.6-0.1-0.7-0.6-0.4c-0.5,0.3-0.9,0.7-1.3,1.1c0,0,0,0.3,0.1,0.4
		c0.4,0.2,0.4,0.5,0.1,0.8c0.5,0.6,1,1.1,1.3,1.7c1,1.6,1.3,5-0.2,7c-0.2,0.3-0.4,0.3-0.7,0.2c-1.1-0.5-2.2-0.4-3.3-0.1
		c-0.5,0.1-0.7,0-0.9-0.4c-0.8-1.4-0.9-3-0.6-4.5c0.3-1.4,0.9-2.5,1.8-3.5c0.1-0.1,0.1-0.3,0.1-0.5c0-0.1,0.1-0.3,0.2-0.4
		c0.1-0.1,0.2-0.2,0.2-0.4c0-0.6-0.8-1.4-1.4-1.5c-0.3,0-0.6,0.1-0.5,0.5C14,23.8,14.1,24.3,14.2,24.8z"/>
	<path fill="#DE4C24" d="M87.4,19c0.8,0.3,1.2,0.9,1.7,1.4c0.5,0.5,0.9,1,1.4,1.5c0.4-1.1-0.6-3.6-2.3-4c1-0.6,2-0.7,3-0.5
		c2,0.4,3.7,2.2,4.1,4.4c0.2,0.9,0.2,1.8-0.2,2.7c-0.8,1.7-2.3,2.3-4,1.6c-2.4-1-3.6-3-3.9-5.5C87.1,20.1,87.3,19.6,87.4,19z"/>
	<path fill="#DE4C24" d="M11.6,18.1c-1.8,0.7-2.9,2.5-2.4,4c1-1.1,2-2.1,3.1-3.3c0.1,0.3,0.3,0.6,0.3,0.8c0.5,2.6-1.7,5.9-4.3,6.6
		c-2.4,0.7-3.6-1.1-3.8-2.8C4.5,21.8,5,20.4,6,19.1c1.2-1.5,3.9-2.1,5.4-1.1C11.5,18,11.6,18,11.6,18.1z"/>
	<path fill="#DE4C24" d="M31,16.7c2.2,0.5,4-0.3,5.8-1.3c1.3,2.3,3.4,3.4,5.8,4c-0.1,0.8-0.2,1.6-0.4,2.4c0,0.2-0.3,0.3-0.4,0.4
		c-3.4,0.7-6.4,0-8.8-2.5c-0.5-0.5-1-1-1.5-1.6c-0.3-0.3-0.4-0.8-0.7-1.2C30.9,16.8,31,16.7,31,16.7z"/>
	<path fill="#DE4C24" d="M57.2,19.3c2.5-0.5,4.5-1.6,5.8-3.9c1.8,1,3.7,1.7,6,1.2c-0.1,0.4-0.2,0.7-0.4,0.9
		c-1.8,2.4-3.9,4.3-6.9,4.8c-1.3,0.2-2.5,0.2-3.8-0.2c-0.2,0-0.4-0.2-0.4-0.4C57.4,21,57.3,20.2,57.2,19.3z"/>
	<path fill="#DE4C24" d="M24,24.4c0.2-1.6,0-2.9-1.2-4.1c0.7-0.3,1.3-0.3,1.9-0.1c2.3,0.7,3.7,3.8,2.9,6c-0.8,2.2-3.2,2.2-4.7,0.7
		c-1.3-1.4-1.5-3.1-1.1-4.9c0-0.1,0.2-0.3,0.3-0.4c0.1,0.1,0.3,0.2,0.4,0.3c0.4,0.7,0.9,1.4,1.3,2.1C23.8,24.1,23.8,24.2,24,24.4z"
		/>
	<path fill="#DE4C24" d="M76.1,24.4c0.5-0.8,1-1.6,1.5-2.4c0.1-0.1,0.2-0.2,0.4-0.3c0,0,0.2,0.2,0.2,0.3c0.7,1.7-0.3,4.6-1.9,5.6
		c-1.7,1.1-3.8,0-4-2c-0.2-2.1,0.4-3.7,2.1-4.9c0.8-0.6,1.8-0.8,2.8-0.4C76.1,21.5,75.9,22.8,76.1,24.4z"/>
	<path fill="#DE4C24" d="M49.9,34.4c-1-0.2-1.9-0.2-2.7-0.5c-0.8-0.2-1.4-0.7-1.5-1.5c-0.2-0.8,0.1-1.5,0.8-2
		c0.5-0.3,1.2-0.5,1.8-0.6c1.6-0.3,3.2-0.3,4.7,0.4c0.9,0.4,1.4,1.1,1.3,2c-0.1,0.8-0.6,1.4-1.6,1.6C51.8,34.1,50.8,34.2,49.9,34.4z
		"/>
	<path fill="#DE4C24" d="M61.3,26.7c-1.2-0.2-2.3-0.5-3.5-0.7c-0.4-0.1-0.4-0.3-0.3-0.6c0.1-0.3,0.1-0.6,0.2-0.8
		c0.1-0.6,0.1-0.6,0.8-0.5c1.1,0.2,2.2,0.4,3.4,0.5c1.5,0.1,2.8-0.4,3.9-1.4c1.2-1,2.2-2.2,3.4-3.3c0.2-0.2,0.6-0.5,0.8-0.4
		c0.4,0.2,0.2,0.6,0.1,0.9c-0.5,1.3-1.3,2.3-2.3,3.3c-1.3,1.3-2.8,2.4-4.8,2.7C62.5,26.5,61.9,26.5,61.3,26.7
		C61.3,26.6,61.3,26.7,61.3,26.7z"/>
	<path fill="#DE4C24" d="M42.4,25.7c-0.6,0.5-1.3,0.6-2,0.7c-1.2,0.2-2.4,0.2-3.6,0c-1.4-0.2-2.5-1-3.5-1.8c-1.3-1-2.4-2.2-3.2-3.6
		c-0.1-0.2-0.3-0.5-0.3-0.8c0-0.3,0.2-0.5,0.3-0.8c0.2,0.1,0.5,0.2,0.7,0.3c0.6,0.6,1.1,1.2,1.7,1.8c0.7,0.6,1.4,1.3,2.1,1.9
		c1.8,1.4,3.8,1.3,5.9,0.9c0.4-0.1,0.8-0.2,1.1-0.3c0.3-0.1,0.6,0,0.6,0.4C42.2,24.8,42.3,25.2,42.4,25.7z"/>
	<path fill="#DE4C24" d="M81.6,41.4c-0.1,0.4-0.2,0.8-0.3,1.3c-0.1,0.7-0.5,1.1-1.1,1.2c-0.6,0.1-1.1-0.3-1.4-0.7
		c-0.4-0.5-0.4-1.1,0-1.6c0.2-0.3,0.4-0.6,0.6-0.9c0,0-0.1-0.1-0.1-0.1c-0.4,0.3-0.8,0.5-1.1,0.8c-0.4,0.3-0.8,0.2-1.1,0
		c-0.4-0.3-0.6-0.7-0.4-1.1c0.1-0.3,0.4-0.7,0.7-0.8c0.9-0.3,1.8-0.5,2.7-0.7c0.1,0,0.2,0.1,0.3,0.1c0.8,0.7,1.7,0.9,2.6,1.1
		c0.2,0,0.4,0.2,0.5,0.3c0.3,0.7,0.7,1.4,0.9,2c0.3,0.7,0,1.4-0.7,1.6c-0.7,0.3-1.3,0-1.6-0.8c-0.1-0.3-0.1-0.7-0.1-1.1
		c0-0.2,0-0.4-0.1-0.6C81.8,41.4,81.7,41.4,81.6,41.4z"/>
	<path fill="#DE4C24" d="M20.5,40.7c0.2,0.3,0.4,0.6,0.6,1c0.4,0.7,0.3,1.4-0.3,1.9c-0.8,0.7-2,0.4-2.3-0.7
		c-0.1-0.2-0.1-0.5-0.1-0.7c0-0.2-0.1-0.4-0.2-0.7c-0.1,0-0.1,0-0.2,0c0,0.3,0,0.7-0.1,1C18,43.5,17.5,44,16.8,44
		c-0.9,0-1.5-0.7-1.2-1.6c0.3-0.8,0.7-1.5,1.1-2.3c0-0.1,0.2-0.2,0.3-0.2c1-0.1,1.9-0.5,2.7-1.1c0.1-0.1,0.2-0.1,0.3-0.1
		c0.9,0.2,1.7,0.4,2.6,0.6c0.5,0.1,0.8,0.5,0.8,1c0,0.5-0.3,0.9-0.7,1c-0.3,0.1-0.7,0-1-0.1c-0.3-0.1-0.6-0.4-0.9-0.7
		C20.6,40.7,20.6,40.7,20.5,40.7z"/>
	<path fill="#DE4C24" d="M43,27.4c0.2,0.5,0.4,0.9,0.6,1.3c0,0.1-0.1,0.3-0.2,0.4c-1.7,1.1-3.4,1.9-5.4,2.1
		c-1.4,0.1-2.7-0.5-3.8-1.3c-1-0.8-1.9-1.8-2.9-2.7C31.1,27.1,31,27,31,26.9c0-0.3,0-0.6,0.1-0.8c0.2-0.3,0.5-0.1,0.7,0.1
		c0.8,0.6,1.6,1.3,2.4,1.9c1.2,0.8,2.4,1.6,3.9,1.3c1.1-0.2,2.2-0.7,3.3-1.1C42,28.1,42.4,27.8,43,27.4z"/>
	<path fill="#DE4C24" d="M62.4,31.2c-2.2-0.2-4-0.8-5.8-2c-0.3-0.2-0.4-0.4-0.2-0.7c0.1-0.2,0.1-0.3,0.2-0.5
		c0.2-0.4,0.4-0.5,0.8-0.3c1.1,0.5,2.2,1,3.4,1.4c1.6,0.6,3.1,0.2,4.4-0.8c0.9-0.7,1.8-1.4,2.7-2.1c0.1-0.1,0.2-0.2,0.3-0.2
		c0.2-0.1,0.5-0.1,0.5-0.1c0.1,0.1,0.2,0.4,0.2,0.6c0,0.1-0.1,0.2-0.2,0.3c-1.4,1.8-3,3.3-5.3,4C63.1,31.1,62.7,31.1,62.4,31.2z"/>
	<path fill="#DE4C24" d="M49.9,37.6c-0.7-0.2-1.5-0.3-2.2-0.5c-0.9-0.3-1.4-0.9-1.7-1.8c0-0.2,0-0.5,0.1-0.6c0.1-0.1,0.4-0.1,0.6,0
		c1.2,0.6,2.5,0.7,3.9,0.5c0.7-0.1,1.3-0.3,2-0.4c0.2,0,0.4-0.1,0.6-0.2c0.4-0.1,0.6,0.1,0.5,0.5c-0.1,0.6-0.4,1.1-0.9,1.4
		C52,37.2,51,37.5,49.9,37.6z"/>
	<path fill="#DE4C24" d="M60.4,35.1c-1.9-0.2-3.7-1-5.2-2.5c-0.3-0.3-0.1-1.4,0.3-1.5c0.1,0,0.3,0,0.5,0.1c0.7,0.4,1.3,0.8,1.9,1.2
		c1,0.6,2.1,1.2,3.4,1c0.6-0.1,1.3-0.3,1.9-0.5c0.3-0.1,0.6-0.2,0.9-0.2c0.1,0,0.3,0.1,0.4,0.3c0.1,0.1,0,0.3-0.1,0.4
		C63.1,34.3,62,35.1,60.4,35.1z"/>
	<path fill="#DE4C24" d="M39.6,35.1c-1.4-0.1-2.7-0.6-3.7-1.5c-0.1-0.1-0.2-0.4-0.3-0.6c0.2-0.1,0.4-0.2,0.7-0.2
		c0.2,0,0.4,0.1,0.6,0.2c1.3,0.7,2.6,0.6,3.9,0c0.9-0.5,1.8-1,2.7-1.6c0.9-0.5,1.2-0.4,1.4,0.6c0,0.1,0,0.4-0.1,0.5
		c-1.4,1.3-3,2.3-4.9,2.5C39.8,35.1,39.7,35.1,39.6,35.1z"/>
	<path fill="#DE4C24" d="M87,28.7c1.4-0.4,2.7-0.8,3.1-2.4c1,0.7,2.1,1,3.4,0.9c-0.4,0.9-1,1.6-1.7,2.1c-1.2,0.8-2.6,1.4-4.1,1
		c-0.4-0.1-0.6-0.2-0.6-0.6C87.1,29.4,87.1,29,87,28.7z"/>
	<path fill="#DE4C24" d="M6.3,27.1c1.2,0.2,2.3-0.2,3.3-0.7c0.8,1.2,1.7,2.1,3.2,2.3c-0.1,0.4-0.1,0.9-0.3,1.3
		c0,0.1-0.3,0.2-0.5,0.2c-1.8,0.2-3.3-0.4-4.6-1.6c-0.5-0.4-0.8-0.9-1.3-1.4C6.2,27.3,6.3,27.2,6.3,27.1z"/>
	<path fill="#DE4C24" d="M10.7,32.8c-2.3,0-3.7-1.1-4.7-2.7c-0.2-0.3-0.3-0.6-0.4-0.9c0-0.1,0.1-0.3,0.1-0.5
		c0.1,0.1,0.3,0.1,0.4,0.2c0.5,0.5,1,1,1.5,1.5c1.1,1,2.5,1.3,3.9,0.9c0.1,0,0.2,0,0.2-0.1c0.7-0.1,0.7-0.1,0.9,0.6
		c0.1,0.3,0,0.5-0.3,0.5C11.7,32.6,11.1,32.7,10.7,32.8z"/>
	<path fill="#DE4C24" d="M94.3,28.8c0,0.3-0.1,0.5-0.2,0.8c-1,2.4-3.5,3.7-6,3c-0.3-0.1-0.7-0.2-1-0.3c0,0,0-0.1,0-0.1
		c0.1-1,0.1-1.1,1.2-0.8c1.8,0.4,3.3,0,4.6-1.5c0.4-0.4,0.8-0.8,1.2-1.3C94.1,28.7,94.2,28.7,94.3,28.8z"/>
	<path fill="#DE4C24" d="M16.6,37.1c-0.5-0.1-1-0.2-1.4-0.4c-0.4-0.2-0.8-0.8-0.7-1.2c0.1-0.5,0.4-0.8,0.9-0.9
		c0.9-0.2,1.9-0.3,2.8,0.1c0.4,0.2,0.8,0.4,0.8,1c0,0.5-0.4,0.8-0.8,0.9C17.7,36.8,17.1,36.9,16.6,37.1z"/>
	<path fill="#DE4C24" d="M23.2,28.1c0.3,0.1,0.7,0.4,1.1,0.5c0.4,0.1,0.9,0.2,1.4,0.2c-0.1,0.2-0.1,0.3-0.2,0.4
		c-1,1.4-2.5,1.9-4.1,1.9c-0.3,0-0.4-0.1-0.4-0.4c0-0.1,0-0.2,0-0.3c-0.1-0.6,0.1-0.9,0.7-1.2C22.1,29.1,22.6,28.6,23.2,28.1z"/>
	<path fill="#DE4C24" d="M79,30.9c-2,0.4-3.8-0.3-4.9-2.1c0.5-0.1,0.9-0.1,1.3-0.2c0.4-0.1,0.8-0.4,1.3-0.6c0.5,0.7,1.2,1.1,2,1.4
		c0.1,0,0.2,0.2,0.2,0.3C79,30.1,79,30.5,79,30.9z"/>
	<path fill="#DE4C24" d="M82.9,34.4c0.7,0.1,1.2,0.2,1.7,0.3c0.4,0.1,0.8,0.3,0.8,0.8c0,0.5-0.2,0.9-0.6,1.1
		c-0.9,0.6-2.5,0.5-3.4-0.2c-0.6-0.4-0.6-1.1,0-1.5C82,34.6,82.6,34.5,82.9,34.4z"/>
	<path fill="#DE4C24" d="M13.1,33.2c0.1,0.3,0.2,0.6,0.2,0.8c0,0.2-0.1,0.4-0.2,0.5c-0.8,0.4-1.6,0.7-2.4,1c-0.4,0.1-0.9,0-1.3-0.1
		c-1.2-0.4-2.2-1.1-2.9-2.1c-0.1-0.1-0.1-0.4-0.1-0.6c0.2,0,0.4,0,0.6,0.1c0.6,0.4,1.1,0.8,1.6,1.1c0.8,0.5,1.6,0.5,2.4,0.1
		C11.8,33.8,12.4,33.5,13.1,33.2z"/>
	<path fill="#DE4C24" d="M86.8,33.3c0.7,0.3,1.3,0.6,2,0.8c0.9,0.4,1.8,0.3,2.7-0.3c0.5-0.3,1-0.7,1.5-1c0.1-0.1,0.3-0.1,0.5-0.1
		c0,0.2,0,0.4,0,0.5c-1,1.9-3.5,2.8-5.4,1.9c-0.3-0.2-0.7-0.3-1-0.5c-0.4-0.2-0.6-0.4-0.3-0.8C86.7,33.7,86.7,33.5,86.8,33.3z"/>
	<path fill="#DE4C24" d="M19.8,34.8c0.2-0.3,0.3-0.6,0.5-0.9c0.6,0.3,1.1,0.6,1.7,0.8c1.2,0.6,2.3,0,3.3-0.6c0.4-0.2,0.6-0.6,1-0.8
		c0.2-0.1,0.4-0.2,0.7-0.2c0,0.3,0.1,0.6,0,0.8c-0.5,0.9-1.3,1.4-2.2,1.9C22.8,36.7,21.3,35.8,19.8,34.8z"/>
	<path fill="#DE4C24" d="M20.9,32.1c0.3,0.1,0.7,0.1,1,0.2c1.8,0.3,3.4-0.5,4.4-2.3c0.2-0.3,0.3-0.6,0.5-0.8
		c0.1-0.1,0.3-0.2,0.4-0.3c0.1,0.2,0.2,0.4,0.2,0.5c-0.3,0.7-0.6,1.4-1,2c-1.2,1.7-2.9,2.2-4.9,1.8C20.6,33,20.6,33,20.9,32.1z"/>
	<path fill="#DE4C24" d="M77.3,33.3c-2.6,0.1-4.1-2-4.7-3.7c-0.1-0.2,0.1-0.4,0.1-0.6c0.2,0.1,0.4,0.2,0.5,0.4
		c0.6,0.7,1,1.5,1.7,2.1c1,0.9,2.3,1,3.6,0.6c0.5-0.1,0.6,0.1,0.7,0.5C79.4,33,79,33,78.8,33C78.3,33.1,77.8,33.2,77.3,33.3z"/>
	<path fill="#DE4C24" d="M79.6,34c0.1,0.2,0.3,0.5,0.5,0.8c-0.6,0.3-1.2,0.6-1.8,0.9c-0.7,0.3-1.4,0.6-2.2,0.3
		c-1.1-0.4-2.1-0.9-2.8-1.9c0-0.1-0.1-0.1-0.1-0.2c0-0.3,0-0.5,0-0.8c0.2,0.1,0.5,0.2,0.7,0.3c0.3,0.3,0.6,0.6,1,0.9
		c1,0.7,2,1,3.2,0.5C78.5,34.5,79,34.3,79.6,34z"/>
	<path fill="#DE4C24" d="M17,39.3c-0.9,0-1.6-0.5-1.7-1.2c-0.1-0.4,0-0.6,0.4-0.5c1,0.2,1.8-0.1,2.7-0.5c0.4-0.2,0.7-0.4,1.1,0
		c0.2,0.3,0.1,0.9-0.2,1.2C18.6,39,17.8,39.3,17,39.3z"/>
	<path fill="#DE4C24" d="M82.8,39.3c-0.7,0-1.5-0.4-2.1-0.9c-0.2-0.2-0.3-0.5-0.4-0.8c-0.1-0.5,0.3-0.8,0.8-0.7
		c0.3,0.1,0.5,0.3,0.7,0.3c0.7,0.1,1.4,0.3,2.1,0.3c0.5,0,0.6,0.1,0.5,0.6C84.3,38.9,83.8,39.3,82.8,39.3z"/>
	<path fill="#DE4C24" d="M13.7,35.5c0.5,0.6,0.6,0.7-0.1,1.1c-0.6,0.4-1.2,0.7-1.8,1c-0.9,0.4-1.7,0-2.4-0.5
		c-0.1-0.1-0.2-0.4-0.2-0.6c0.2,0,0.4-0.1,0.6,0c0.9,0.4,1.7,0.4,2.5-0.2C12.7,36.1,13.2,35.8,13.7,35.5z"/>
	<path fill="#DE4C24" d="M86.1,35.4c0.5,0.3,0.9,0.5,1.3,0.8c0.9,0.6,1.8,0.8,2.9,0.3c0.1-0.1,0.3,0,0.4,0c0,0.2,0,0.4-0.1,0.4
		c-0.7,0.6-1.5,0.9-2.3,0.6c-0.7-0.2-1.5-0.6-2.1-1C85.6,36.2,86,35.8,86.1,35.4z"/>
</g>
</svg>
